<?xml version="1.0" encoding="us-ascii" standalone="no"?><svg xmlns="http://www.w3.org/2000/svg" xmlns:xlink="http://www.w3.org/1999/xlink" contentStyleType="text/css" height="519px" preserveAspectRatio="none" style="width:854px;height:519px;background:#FFFFFF;" version="1.1" viewBox="0 0 854 519" width="854px" zoomAndPan="magnify"><defs/><g><!--cluster DDS Mini-Bus--><g id="cluster_DDS Mini-Bus"><path d="M8.5,6 L104.5,6 A3.75,3.75 0 0 1 107,8.5 L114,29.6094 L844.5,29.6094 A2.5,2.5 0 0 1 847,32.1094 L847,509.5 A2.5,2.5 0 0 1 844.5,512 L8.5,512 A2.5,2.5 0 0 1 6,509.5 L6,8.5 A2.5,2.5 0 0 1 8.5,6 " fill="none" style="stroke:#000000;stroke-width:1.5;"/><line style="stroke:#000000;stroke-width:1.5;" x1="6" x2="114" y1="29.6094" y2="29.6094"/><text fill="#000000" font-family="sans-serif" font-size="14" font-weight="bold" lengthAdjust="spacing" textLength="95" x="10" y="22.5332">DDS Mini-Bus</text></g><!--cluster Transport--><g id="cluster_Transport"><path d="M544.5,202 L613.5,202 A3.75,3.75 0 0 1 616,204.5 L623,225.6094 L820.5,225.6094 A2.5,2.5 0 0 1 823,228.1094 L823,485.5 A2.5,2.5 0 0 1 820.5,488 L544.5,488 A2.5,2.5 0 0 1 542,485.5 L542,204.5 A2.5,2.5 0 0 1 544.5,202 " fill="none" style="stroke:#000000;stroke-width:1.5;"/><line style="stroke:#000000;stroke-width:1.5;" x1="542" x2="623" y1="225.6094" y2="225.6094"/><text fill="#000000" font-family="sans-serif" font-size="14" font-weight="bold" lengthAdjust="spacing" textLength="68" x="546" y="218.5332">Transport</text></g><!--entity DDSCore--><g id="elem_DDSCore"><rect fill="#F1F1F1" height="37.6094" rx="2.5" ry="2.5" style="stroke:#181818;stroke-width:0.5;" width="80" x="327" y="140"/><text fill="#000000" font-family="sans-serif" font-size="14" lengthAdjust="spacing" textLength="60" x="337" y="164.5332">DDSCore</text></g><!--entity Publisher--><g id="elem_Publisher"><rect fill="#F1F1F1" height="37.6094" rx="2.5" ry="2.5" style="stroke:#181818;stroke-width:0.5;" width="79" x="387.5" y="42"/><text fill="#000000" font-family="sans-serif" font-size="14" lengthAdjust="spacing" textLength="59" x="397.5" y="66.5332">Publisher</text></g><!--entity Subscriber--><g id="elem_Subscriber"><rect fill="#F1F1F1" height="37.6094" rx="2.5" ry="2.5" style="stroke:#181818;stroke-width:0.5;" width="88" x="264" y="42"/><text fill="#000000" font-family="sans-serif" font-size="14" lengthAdjust="spacing" textLength="68" x="274" y="66.5332">Subscriber</text></g><!--entity Serializer--><g id="elem_Serializer"><rect fill="#F1F1F1" height="37.6094" rx="2.5" ry="2.5" style="stroke:#181818;stroke-width:0.5;" width="78" x="22" y="238"/><text fill="#000000" font-family="sans-serif" font-size="14" lengthAdjust="spacing" textLength="58" x="32" y="262.5332">Serializer</text></g><!--entity DiscoveryManager--><g id="elem_DiscoveryManager"><rect fill="#F1F1F1" height="37.6094" rx="2.5" ry="2.5" style="stroke:#181818;stroke-width:0.5;" width="138" x="135" y="238"/><text fill="#000000" font-family="sans-serif" font-size="14" lengthAdjust="spacing" textLength="118" x="145" y="262.5332">DiscoveryManager</text></g><!--entity ConfigManager--><g id="elem_ConfigManager"><rect fill="#F1F1F1" height="37.6094" rx="2.5" ry="2.5" style="stroke:#181818;stroke-width:0.5;" width="117" x="308.5" y="238"/><text fill="#000000" font-family="sans-serif" font-size="14" lengthAdjust="spacing" textLength="97" x="318.5" y="262.5332">ConfigManager</text></g><!--entity Logger--><g id="elem_Logger"><rect fill="#F1F1F1" height="37.6094" rx="2.5" ry="2.5" style="stroke:#181818;stroke-width:0.5;" width="65" x="460.5" y="238"/><text fill="#000000" font-family="sans-serif" font-size="14" lengthAdjust="spacing" textLength="45" x="470.5" y="262.5332">Logger</text></g><!--entity TransportBase--><g id="elem_TransportBase"><rect fill="#F1F1F1" height="37.6094" rx="2.5" ry="2.5" style="stroke:#181818;stroke-width:0.5;" width="114" x="561" y="238"/><text fill="#000000" font-family="sans-serif" font-size="14" lengthAdjust="spacing" textLength="94" x="571" y="262.5332">TransportBase</text></g><!--entity UdpTransport--><g id="elem_UdpTransport"><rect fill="#F1F1F1" height="37.6094" rx="2.5" ry="2.5" style="stroke:#181818;stroke-width:0.5;" width="107" x="558.5" y="336"/><text fill="#000000" font-family="sans-serif" font-size="14" lengthAdjust="spacing" textLength="87" x="568.5" y="360.5332">UdpTransport</text></g><!--entity TcpTransport--><g id="elem_TcpTransport"><rect fill="#F1F1F1" height="37.6094" rx="2.5" ry="2.5" style="stroke:#181818;stroke-width:0.5;" width="106" x="701" y="336"/><text fill="#000000" font-family="sans-serif" font-size="14" lengthAdjust="spacing" textLength="86" x="711" y="360.5332">TcpTransport</text></g><!--entity AckManager--><g id="elem_AckManager"><rect fill="#F1F1F1" height="37.6094" rx="2.5" ry="2.5" style="stroke:#181818;stroke-width:0.5;" width="99" x="562.5" y="434"/><text fill="#000000" font-family="sans-serif" font-size="14" lengthAdjust="spacing" textLength="79" x="572.5" y="458.5332">AckManager</text></g><!--link Publisher to DDSCore--><g id="link_Publisher_DDSCore"><path d="M415.71,80.06 C405.06,97.11 392.3295,117.4717 381.6195,134.6117 " fill="none" id="Publisher-to-DDSCore" style="stroke:#181818;stroke-width:1.0;"/><polygon fill="#181818" points="378.44,139.7,386.6014,134.1872,381.0895,135.4597,379.817,129.9479,378.44,139.7" style="stroke:#181818;stroke-width:1.0;"/></g><!--link Subscriber to DDSCore--><g id="link_Subscriber_DDSCore"><path d="M319.1,80.06 C329.58,97.11 342.0792,117.4477 352.6092,134.5877 " fill="none" id="Subscriber-to-DDSCore" style="stroke:#181818;stroke-width:1.0;"/><polygon fill="#181818" points="355.75,139.7,354.4471,129.9377,353.1327,135.4397,347.6307,134.1254,355.75,139.7" style="stroke:#181818;stroke-width:1.0;"/></g><!--link DDSCore to Serializer--><g id="link_DDSCore_Serializer"><path d="M326.94,162.18 C266.03,166.03 153.48,175.46 118,194 C98.69,204.09 85.9983,218.5299 75.8783,232.9399 " fill="none" id="DDSCore-to-Serializer" style="stroke:#181818;stroke-width:1.0;"/><polygon fill="#181818" points="72.43,237.85,80.8759,232.7837,75.3036,233.7582,74.3291,228.186,72.43,237.85" style="stroke:#181818;stroke-width:1.0;"/></g><!--link DDSCore to DiscoveryManager--><g id="link_DDSCore_DiscoveryManager"><path d="M326.82,176.2 C315.04,181.42 302.29,187.54 291,194 C268.14,207.08 248.6393,221.0763 231.5493,234.1963 " fill="none" id="DDSCore-to-DiscoveryManager" style="stroke:#181818;stroke-width:1.0;"/><polygon fill="#181818" points="226.79,237.85,236.3647,235.5423,230.7561,234.8053,231.4931,229.1966,226.79,237.85" style="stroke:#181818;stroke-width:1.0;"/></g><!--link DDSCore to ConfigManager--><g id="link_DDSCore_ConfigManager"><path d="M367,178.06 C367,195.11 367,214.56 367,231.7 " fill="none" id="DDSCore-to-ConfigManager" style="stroke:#181818;stroke-width:1.0;"/><polygon fill="#181818" points="367,237.7,371,228.7,367,232.7,363,228.7,367,237.7" style="stroke:#181818;stroke-width:1.0;"/></g><!--link DDSCore to Logger--><g id="link_DDSCore_Logger"><path d="M407.25,173.82 C419.41,179.07 432.35,185.8 443,194 C458.77,206.15 469.268,219.2736 478.368,232.7836 " fill="none" id="DDSCore-to-Logger" style="stroke:#181818;stroke-width:1.0;stroke-dasharray:7.0,7.0;"/><polygon fill="#181818" points="481.72,237.76,480.0096,228.0608,478.9267,233.613,473.3745,232.5301,481.72,237.76" style="stroke:#181818;stroke-width:1.0;"/></g><!--link DDSCore to TransportBase--><g id="link_DDSCore_TransportBase"><path d="M407.11,160.21 C447.21,161.96 509.57,168.99 557,194 C576.77,204.42 590.387,218.7833 601.467,233.0333 " fill="none" id="DDSCore-to-TransportBase" style="stroke:#181818;stroke-width:1.0;"/><polygon fill="#181818" points="605.15,237.77,602.7833,228.2097,602.0809,233.8228,596.4678,233.1203,605.15,237.77" style="stroke:#181818;stroke-width:1.0;"/></g><!--reverse link TransportBase to UdpTransport--><g id="link_TransportBase_UdpTransport"><path d="M615.7531,294.0253 C614.6931,311.0753 614.21,318.56 613.14,335.7 " fill="none" id="TransportBase-backto-UdpTransport" style="stroke:#181818;stroke-width:1.0;"/><polygon fill="none" points="616.87,276.06,609.7647,293.653,621.7415,294.3976,616.87,276.06" style="stroke:#181818;stroke-width:1.0;"/></g><!--reverse link TransportBase to TcpTransport--><g id="link_TransportBase_TcpTransport"><path d="M658.2866,286.4386 C682.4466,303.4886 703.8,318.56 728.07,335.7 " fill="none" id="TransportBase-backto-TcpTransport" style="stroke:#181818;stroke-width:1.0;"/><polygon fill="none" points="643.58,276.06,654.8271,291.3408,661.7461,281.5364,643.58,276.06" style="stroke:#181818;stroke-width:1.0;"/></g><!--link UdpTransport to AckManager--><g id="link_UdpTransport_AckManager"><path d="M612,374.06 C612,391.11 612,410.56 612,427.7 " fill="none" id="UdpTransport-to-AckManager" style="stroke:#181818;stroke-width:1.0;"/><polygon fill="#181818" points="612,433.7,616,424.7,612,428.7,608,424.7,612,433.7" style="stroke:#181818;stroke-width:1.0;"/></g><!--SRC=[RP31Ri8m38RlUGgBUtY22Gde4QH9XHFQ8SrCYTh6aPDEOXlllgobNGYx-V_inFv_tnZh5AiED7MEBDfGXckBmAY3idMBmiyZ7LdI5wOE8N2FGZYb6rKZB8gYXBsnHcvwlu0l0N2AQ4kCRx_rQr-rnb-G1rNsbTTigaaY6zMQpxiiZDVqWNpTAnl_7k6MxDdKATbHFPIndguuiBBU4OVXW3WpWutomo6H7T_TZE_ee9_GMZV9ifku2P6O02bNYS7KKDwQgf6dLhFMi-ri88lWhxjShf8uibTP19c6bsyfyqp-dtaCwV79k2h9x0S0]--></g></svg>